<svg width="200" height="200" viewBox="0 0 200 200" fill="none" xmlns="http://www.w3.org/2000/svg">
<style>
#logo {
  transform-box: fill-box;
  transform-origin: center;
  transform: scale(1.05);
}

@media (prefers-color-scheme: dark) {
  #bg {
    fill: transparent;
  }
    #logo {
    transform: scale(1.15);
  }
}
</style>
<rect id="bg" width="200" height="200" rx="25" x="0" y="0" fill="#0F0F12"/>
<g id="logo">
<path d="M65.6522 67.9652L134.351 132.028L103.162 165.474C85.4722 184.444 55.7523 185.482 36.7817 167.791C17.8109 150.101 16.7731 120.381 34.4636 101.411L65.6522 67.9652Z" fill="#86EFAC" fill-opacity="0.4"/>
<path d="M48.1521 117.722C43.1454 124.601 36.8195 141.291 51.571 153.02" stroke="#86EFAC" stroke-width="3.69" stroke-linecap="round" stroke-dasharray="7.42 14.83 24.72 14.83"/>
<path d="M163.219 32.2039C182.19 49.8941 183.228 79.6143 165.539 98.5851L103.162 165.476L102.324 166.354C84.5454 184.476 55.4538 185.208 36.7796 167.795L35.9048 166.956C17.7825 149.178 17.0489 120.088 34.463 101.413L96.8402 34.5221C114.53 15.5529 144.25 14.5147 163.219 32.2039ZM68.8834 82.9977L43.6884 110.016C30.7493 123.892 31.5074 145.63 45.3823 158.569C59.2581 171.508 80.9975 170.749 93.9367 156.874L119.132 129.855L68.8834 82.9977ZM154.617 41.4294C140.742 28.4913 119.005 29.2507 106.066 43.1248L80.1046 70.9645L130.353 117.822L156.314 89.9822C169.252 76.1066 168.492 54.3683 154.617 41.4294Z" fill="#86EFAC"/>
</g>
</svg>
